<?xml version="1.0" encoding="UTF-8"?>
<svg width="27px" height="27px" viewBox="0 0 27 27" version="1.1" xmlns="http://www.w3.org/2000/svg" xmlns:xlink="http://www.w3.org/1999/xlink">
    <!-- Generator: Sketch 51.1 (57501) - http://www.bohemiancoding.com/sketch -->
    <title>phone-receiver</title>
    <desc>Created with Sketch.</desc>
    <defs></defs>
    <g id="Welcome" stroke="none" stroke-width="1" fill="none" fill-rule="evenodd">
        <g id="960" transform="translate(-666.000000, -26.000000)" fill="#394E83" fill-rule="nonzero">
            <g id="Group-2">
                <g id="header" transform="translate(3.000000, 0.000000)">
                    <g id="phone-receiver" transform="translate(663.000000, 26.000000)">
                        <path d="M26.9871305,21.3082258 C27.0443432,21.7468311 26.910769,22.1281864 26.5869683,22.4522916 L22.7854272,26.2275686 C22.6139291,26.4182463 22.3900755,26.5804625 22.1137731,26.7137966 C21.8374706,26.8473177 21.5659786,26.9331226 21.2992972,26.9712114 C21.2802419,26.9712114 21.2229357,26.9761186 21.1276123,26.9856524 C21.0324757,26.9951396 20.908616,27 20.7561732,27 C20.3940283,27 19.8080298,26.9380298 18.9981777,26.8140426 C18.1883255,26.6900554 17.1974944,26.3849244 16.0256842,25.8987899 C14.8535937,25.4125619 13.5245302,24.6831265 12.0382601,23.710764 C10.55199,22.7384483 8.97034974,21.4036114 7.2934795,19.7065337 C5.95960544,18.390858 4.85439551,17.1323856 3.9778497,15.9311632 C3.10130389,14.7298474 2.39625617,13.6191502 1.86270655,12.5990248 C1.32911022,11.5788994 0.928948005,10.6541129 0.662173193,9.8246652 C0.395398382,8.99521748 0.214372616,8.28017635 0.119095898,7.67954179 C0.0238191796,7.07890724 -0.0142915078,6.60698009 0.00476383592,6.26376034 C0.0238191796,5.9205406 0.0333468515,5.72986296 0.0333468515,5.69172744 C0.0714575388,5.42477875 0.157206585,5.15306311 0.290593991,4.87658054 C0.423981397,4.60009797 0.585951818,4.37605175 0.776505255,4.20444187 L4.57804632,0.400423036 C4.84482113,0.133474345 5.14970663,0 5.49270282,0 C5.74042229,0 5.95955874,0.0715041135 6.15011217,0.214512341 C6.34066561,0.357520568 6.50263603,0.533897381 6.63602344,0.743642781 L9.6944061,6.5497768 C9.86590419,6.85486102 9.91354255,7.18854688 9.83732118,7.55083439 C9.7610998,7.9131219 9.59912938,8.21820611 9.35140991,8.46608704 L7.95084215,9.86756767 C7.91273147,9.90570319 7.87938461,9.96767342 7.8508016,10.0534784 C7.82221858,10.1392833 7.80792708,10.2107874 7.80792708,10.2679907 C7.88414845,10.6684137 8.05564654,11.1260401 8.32242136,11.6408697 C8.55108548,12.098496 8.90360934,12.6562281 9.37999293,13.3140659 C9.85637652,13.9719038 10.5328412,14.7298007 11.409387,15.58785 C12.2668775,16.4650606 13.0290912,17.1466397 13.6960283,17.6329611 C14.3628252,18.1190022 14.9203808,18.4766629 15.3681814,18.7054761 C15.815982,18.9342893 16.1589782,19.0725305 16.3971232,19.1200598 L16.7543175,19.1916106 C16.7924282,19.1916106 16.8544982,19.177263 16.9401538,19.1487081 C17.0259029,19.1200598 17.0878327,19.0867379 17.1259901,19.0485556 L18.7551753,17.3896602 C19.0983583,17.0846227 19.4983337,16.9320806 19.9557087,16.9320806 C20.2797429,16.9320806 20.53685,16.9892372 20.7274034,17.1036905 L20.7559397,17.1036905 L26.272415,20.3642781 C26.6727173,20.6123459 26.9108624,20.9268706 26.9871305,21.3082258 Z" id="Shape"></path>
                    </g>
                </g>
            </g>
        </g>
    </g>
</svg>