<?xml version="1.0" encoding="UTF-8"?>
<svg width="21px" height="30px" viewBox="0 0 21 30" version="1.1" xmlns="http://www.w3.org/2000/svg" xmlns:xlink="http://www.w3.org/1999/xlink">
    <!-- Generator: Sketch 51.1 (57501) - http://www.bohemiancoding.com/sketch -->
    <title>placeholder</title>
    <desc>Created with Sketch.</desc>
    <defs></defs>
    <g id="Welcome" stroke="none" stroke-width="1" fill="none" fill-rule="evenodd">
        <g id="960" transform="translate(-13.000000, -10.000000)" fill="#394E84" fill-rule="nonzero">
            <g id="Group-2">
                <g id="header" transform="translate(3.000000, 0.000000)">
                    <g id="placeholder" transform="translate(10.000000, 10.000000)">
                        <path d="M9.5,6 C7.5705,6 6,7.5705 6,9.5 C6,11.4295 7.5705,13 9.5,13 C11.4295,13 13,11.4295 13,9.5 C13,7.5705 11.4295,6 9.5,6 Z M9.5,12 C8.1215,12 7,10.8785 7,9.5 C7,8.1215 8.1215,7 9.5,7 C10.8785,7 12,8.1215 12,9.5 C12,10.8785 10.8785,12 9.5,12 Z" id="Shape"></path>
                        <path d="M17.9261593,3.07741476 C15.9428481,1.09301094 13.305734,0 10.5010625,0 C7.69584337,0 5.0592769,1.09301094 3.07596562,3.07741476 C-0.594419646,6.74927407 -1.05054838,13.6579798 2.088143,17.843746 L10.5010625,30 L18.9013878,17.8607301 C22.0526734,13.6579798 21.5965446,6.74927407 17.9261593,3.07741476 Z M18.0132235,17.2202641 L10.5010625,28.0747667 L2.97685482,17.2032799 C0.130020115,13.4054094 0.537962383,7.16620706 3.85078215,3.85211023 C5.62711063,2.07480322 7.9887952,1.09575032 10.5010625,1.09575032 C13.0133298,1.09575032 15.3750143,2.07480322 17.1518904,3.85211023 C20.4647102,7.16620706 20.8726524,13.4054094 18.0132235,17.2202641 Z" id="Shape"></path>
                    </g>
                </g>
            </g>
        </g>
    </g>
</svg>