<?xml version="1.0" encoding="UTF-8"?>
<svg width="89px" height="90px" viewBox="0 0 89 90" version="1.1" xmlns="http://www.w3.org/2000/svg" xmlns:xlink="http://www.w3.org/1999/xlink">
    <!-- Generator: Sketch 51.1 (57501) - http://www.bohemiancoding.com/sketch -->
    <title>kid copy 2</title>
    <desc>Created with Sketch.</desc>
    <defs></defs>
    <g id="Welcome" stroke="none" stroke-width="1" fill="none" fill-rule="evenodd">
        <g id="960" transform="translate(-699.000000, -511.000000)">
            <g id="left_content" transform="translate(3.000000, 495.000000)">
                <g id="block2-copy-2" transform="translate(658.000000, 0.000000)">
                    <g id="kid-copy-2" transform="translate(39.000000, 17.000000)">
                        <ellipse id="Oval" stroke="#394E83" stroke-width="2" cx="43.5" cy="44" rx="43.5" ry="44"></ellipse>
                        <g id="iconzub">
                            <g id="Welcome">
                                <g id="Desktop-HD">
                                    <g id="Наши-услуги">
                                        <g id="услуги">
                                            <g id="услуга">
                                                <g id="зуб">
                                                    <path d="M43.6891304,0.569784173 C67.4565217,0.569784173 86.7478261,19.942446 86.7478261,43.8100719 C86.7478261,67.6776978 67.4565217,87.0503597 43.6891304,87.0503597 C19.9217391,87.0503597 0.630434783,67.6776978 0.630434783,43.8100719 C0.630434783,42.4172662 0.37826087,35.4532374 3.84565217,27.4129496 C10.023913,12.9784173 25.4695652,0.569784173 43.6891304,0.569784173 Z" id="Oval-3"></path>
                                                    <path d="M48.6065217,46.5956835 C49.173913,47.9884892 49.4891304,49.381295 48.6065217,51.4071942 C47.6608696,53.4330935 42.9326087,58.0546763 41.9869565,59.8906475 C41.0413043,61.7266187 40.8521739,63.4992806 41.7347826,64.3223022 C42.6173913,65.1453237 44.2565217,65.9683453 47.5978261,64.3223022 C50.9391304,62.6129496 53.0195652,60.4604317 55.1630435,57.4848921 C57.3065217,54.5726619 58.9456522,50.3942446 63.1065217,46.4057554 C67.2673913,42.4805755 72.1847826,36.7827338 73.7608696,33.4906475 C76.3456522,28.2359712 74.1391304,21.8417266 68.9065217,19.2460432 C65.4391304,17.5366906 61.7826087,17.1568345 57.9369565,18.0431655 C56.2978261,14.4345324 53.7130435,11.8388489 50.2456522,10.1294964 C45.0130435,7.53381295 38.6456522,9.74964029 36.0608696,15.0043165 C34.4217391,18.3597122 32.7826087,27.476259 32.2782609,33.1741007 C31.7108696,38.8719424 29.6934783,41.0244604 28.6847826,44.5064748 C27.676087,47.9884892 27.2978261,50.9640288 27.9913043,54.6992806 C28.7478261,58.371223 30.3869565,59.1309353 31.5847826,59.3841727 C32.7826087,59.5741007 34.1065217,58.3079137 34.926087,56.4719424 C35.7456522,54.5726619 36.4391304,47.9884892 37.5108696,46.0258993 C38.5195652,44.0633094 39.8434783,43.4302158 41.2304348,43.0503597 C42.6173913,42.6071942 44.1304348,42.4172662 45.7065217,43.1769784 C47.2826087,43.9366906 48.0391304,45.2661871 48.6065217,46.5956835 Z" id="Combined-Shape" stroke="#394E83" stroke-width="3"></path>
                                                </g>
                                            </g>
                                        </g>
                                    </g>
                                </g>
                            </g>
                            <path d="M27.423913,84.2014388 C8.7,76.4143885 -1.63913043,58.3079137 4.35,43.7467626 C10.3391304,29.1856115 33.8543478,16.8402878 52.5782609,24.5640288 C71.3021739,32.3510791 78.2369565,57.294964 72.2478261,71.8561151 C66.1956522,86.4172662 46.1478261,91.9251799 27.423913,84.2014388 Z" id="Shape" stroke="#394E83"></path>
                            <path d="M65.5652174,54.952518 C54.0282609,71.6661871 28.7478261,74.2618705 15.8869565,65.2719424 C2.96304348,56.2820144 1.89130435,35.4532374 13.4282609,18.676259 C24.9652174,1.89928058 44.823913,-4.30503597 57.7478261,4.68489209 C70.6086957,13.6748201 77.1021739,38.2388489 65.5652174,54.952518 Z" id="Shape" stroke="#394E83"></path>
                            <path d="M25.2804348,33.7438849 C33.35,15.0676259 51.6326087,5.0647482 66.0065217,11.3956835 C80.3804348,17.7266187 92.2326087,41.5309353 84.1630435,60.2071942 C76.0934783,78.8834532 51.1282609,85.3410072 36.6913043,79.0100719 C22.2543478,72.6791367 17.1478261,52.3568345 25.2804348,33.7438849 Z" id="Shape" stroke="#394E83"></path>
                        </g>
                    </g>
                </g>
            </g>
        </g>
    </g>
</svg>